<?xml version="1.0" encoding="utf-8"?>
<!-- Generator: Adobe Illustrator 25.0.0, SVG Export Plug-In . SVG Version: 6.00 Build 0)  -->
<svg version="1.1" id="katman_1" xmlns="http://www.w3.org/2000/svg" xmlns:xlink="http://www.w3.org/1999/xlink" x="0px" y="0px"
	 viewBox="0 0 2782.7 1553" style="enable-background:new 0 0 2782.7 1553;" xml:space="preserve">
<style type="text/css">
	.st0{fill:#FA110D;}
</style>
<path class="st0" d="M508.9,725.4c3-2.5,6.6-3.3,10.6,0c0.7,0.7,1.3,1.5,1.7,2.4l64.5,142.9c2.5,6.4,2.7,13.6-2.3,21.1
	c-5.4,7.4-12.2,9.6-18.9,9.5H453.7c-2.1,0-4.3-0.5-6.2-1.3c-2-0.8-3.8-2-5.3-3.5c-4.8-5-6.2-11.3-3.9-17.8l68.9-150.8
	C507.6,726.9,508.2,726.1,508.9,725.4L508.9,725.4z M242.1,1038.4c-1.7,3-3.7,5.7-6,8.2c-5.1,5.5-10.8,9.2-16.7,11.4l-50.4,18.1
	c-4.9,1.8-9.4,4.4-13.4,7.8c-3.9,3.4-7.2,7.5-9.6,12.1c-2.2,4.3-3.7,9-4.5,13.8c-0.6,4.3-0.4,7.7,0.3,11c0.8,3.3,2.1,6.5,3.9,9.3
	c1.8,2.9,4.1,5.4,6.7,7.5c5.5,4.4,12.3,6.5,18.8,6.4l203.2,0.1c3.2,0,6.5-0.6,9.5-1.6c3.1-1.1,5.9-2.7,8.4-4.7
	c5.1-4.1,8.6-9.8,10-16.2c1.4-6.4,0.5-14.8-2.9-23.3c-1.8-4.3-4.4-8.3-7.5-11.8c-7-7.5-16.7-11.7-25.2-17.2c-4.1-2.5-7-6.4-8.1-11
	c-1.2-4.6-0.5-9.5,1.9-13.6l14.7-24c1.6-2.6,3.8-4.9,6.3-6.7s5.2-3.4,8.2-4.1c3-0.8,6.1-0.2,9.2-0.2h232.5c4,0,8.1,0.5,11.9,2
	c3.8,1.5,7.2,3.8,10.2,6.7c2.9,2.9,5.4,6.2,6.9,10l41.1,101.4c1.1,2.7,3,5.1,5.2,7.2c4.5,4.4,10.4,6.8,16,6.9l234.6,0.1
	c4.4,0,8.8-0.7,12.9-2.3c4.1-1.6,7.9-3.9,11.1-6.9c9.9-9,13.1-22.6,10.5-34.4c-0.8-3.7-2.2-7.3-4.1-10.5c-1.9-3.3-4.3-6.3-7.1-8.8
	c-2.8-2.5-6-4.8-9.5-6.2l-29.8-12.7c-5.5-2.3-10.5-5.7-15.3-9.4c-4.7-3.7-9.1-7.9-12.9-12.5c-3.8-4.6-7.5-9.5-9.9-15L651.8,437.7
	c-1.6-3.8-4.8-6.8-7.9-9.5c-6.6-5.7-14.9-8.7-22.8-8.8l-224.4,0.3c-3.5,0-7.1,0.5-10.4,1.6c-3.4,1.1-6.5,2.8-9.4,4.9
	c-2.8,2.1-5.3,4.7-7.3,7.6c-2,2.9-3.5,6.2-4.5,9.6c-2.2,6.8-1.4,16.5,2.7,26.1c2.2,4.9,5.3,9.4,9.1,13.1c3.8,3.8,8.4,6.7,13.3,8.9
	l29.1,12.9c2.9,1.3,5.9,2.6,8.5,4.4c2.6,1.8,5,4,7.1,6.4c2.1,2.4,4,5.1,5.2,8.1l14.3,35.6c3.2,9.5,2.7,20.3-2.6,30.5L242.1,1038.4z
	 M1562.2,843c2.7,2.1,5,4.6,7.8,8.8c2.8,4.2,6.3,9.9,9.5,14.7c3.3,4.8,6.4,8.5,10.2,11.5c7.7,6.1,17.9,8.6,27.4,7.3
	c4.8-0.6,9.5-2.2,13.7-4.6c4.2-2.4,8.1-5.6,10.9-9.5l87.1-120.9c5.5-7.9,7.8-17.8,6.8-27c-0.5-4.7-1.8-9.3-3.8-13.6
	c-2.1-4.3-4.8-8.2-8.2-11.5c-11.3-10.8-25.4-14-39.4-10.3c-4.5,1.3-8.8,3.4-17.9,9.2c-9.1,5.8-23.1,15.2-32.5,21.2
	c-9.4,6-14.2,8.6-19.2,10.6c-10.1,4.1-20.9,6.5-31.5,6.7h-223l-0.1-207.4l223.7-0.1c16.1-0.1,32.9,2.4,49.1,8.7
	c7.8,3,15.4,6.6,22.4,11.2l67.8,44.6c11.8,8.1,26.2,9.4,39.9-1.4c5.8-5.1,12.2-13.2,16.7-20.1c6.2-9.9,7.1-19.4,3.8-29.7
	c-1.1-3.2-2.8-6.2-4.7-9l-62.7-90.6c-3.2-4.6-6.9-8.7-11.3-12.1c-9.2-7.1-20.2-10.8-30.9-10.9l-559.5,0.9c-4.8,0-9.7-0.5-14.3,0.9
	c-4.6,1.4-8.9,3.9-12.6,7.1c-3.7,3.2-6.8,7-9.1,11.3c-4.7,8.6-5.9,18.7-3.6,28.2c1.2,4.7,3.3,9.2,6.1,13.1c2.8,4,6.3,7.5,10.4,10
	l23.1,14.3c2.7,1.7,5.2,3.8,7.2,6.2c4.1,5,6.3,11.2,6.3,17.7l0.3,496.8c0,4.7-0.8,9.4-2.5,13.8c-3.3,8.4-8.4,14.8-19.8,21
	c-5.4,3-12.3,6.3-17.8,9.6c-5.5,3.2-9.6,6.3-12.9,10.2c-6.9,8-10,18.6-9.2,28.4c0.8,10.3,5.6,19.9,13.4,26.7c8,7.1,18.5,10,28.3,9.7
	l560.6,0.1c6.1,0,12.3-0.7,18.2-2.4c5.9-1.7,11.5-4.4,16.5-7.9c5.1-3.5,9.7-7.6,13.3-12.6l67.1-92.9c7.4-10.4,9.2-23,4.4-35.4
	c-1.6-3.8-3.7-7.4-6.5-10.6c-2.7-3.1-6-5.8-10.5-8.2c-9.2-4.9-22.9-7.6-34.9-4.4c-6,1.5-11.4,4.5-16.7,7.8l-74.3,46.2
	c-12.7,7.9-28.2,10.2-42.7,13.1c-14.6,3-29.5,4.4-44.4,4.4l-197.7-0.4l0.1-203.3h193.2C1556.7,838.3,1559.6,841,1562.2,843
	L1562.2,843z M2432.2,430.9c-2.6,1.8-5.6,2.6-8.7,2.5c-1.5-0.1-3.1-0.4-5.9-1.4c-2.9-1-7.1-2.7-11.3-4.3c-4.3-1.6-8.5-3.2-31.9-7.7
	c-23.3-4.5-65.7-12-108.2-11.6c-42.4,0.4-85,8.7-125.1,23.5c-40,14.9-77.6,36.3-109.3,60.9c-31.6,24.6-57.3,52.3-78.4,83.1
	c-21.2,30.8-37.8,64.7-49.2,100.2s-17.4,72.8-18.2,109c-0.8,36.3,3.7,71.6,13.5,105.4c9.8,33.8,24.9,66.1,44.7,95
	c19.8,28.9,44.4,54.5,66,73.1c21.6,18.6,40.1,30.1,59.3,40.4c19.2,10.3,39,19.2,59.4,26.7c20.4,7.5,41.3,13.5,71,18.6
	c29.7,5,68.1,9.1,106.5,8.5c38.5-0.5,76.7-5.6,114-15.2c37.2-9.5,73.2-23.5,101.5-36.7c28.3-13.2,48.8-25.8,63.8-35.7
	c15-9.9,24.5-17.3,30-21.9c5.5-4.6,7-6.5,8.3-8.6c1.2-2.1,2.2-4.3,2.8-6.6c0.6-2.3,0.9-4.7,1.2-8.4c0.3-3.7,0.5-8.7-0.4-13.4
	c-0.9-4.9-3.1-9.5-6.3-13.3c-3.4-4-8.3-7.6-11.5-10.3c-6.4-5.6-7.1-8.7-8.5-13.2c-0.6-2.3-0.8-4.7-0.8-7l-0.3-95.1
	c-0.1-10.9,3.9-21.4,11.1-29.5l20.8-23.4c6.6-7.5,9.6-17.4,9.2-26.7c-0.5-9.8-4.7-18.9-11.8-25.7c-7.4-7-17.1-10.4-26.3-10.4
	l-244.7,0c-4.1,0-8.1,0.9-12,2.4c-3.8,1.5-7.3,3.7-10.4,6.4c-3,2.7-5.6,6-7.5,9.6c-3.9,7.3-5,15.7-3.3,23.8c0.9,4,2.4,7.8,4.6,11.3
	c2.2,3.5,5,6.5,8.2,9c9.1,8.9,20.6,15.1,26.9,20.4c6.3,5.4,8.8,8.3,10.9,11.5c4.2,6.6,6,14.3,5.9,21.7l0,126.3
	c0,5.3-0.8,10.7-2.4,15.7c-1.6,5.1-4,9.9-7.2,14.2c-3.1,4.3-6.9,8.2-11.2,11.4c-4.3,3.2-9,5.8-20.2,8.7c-11.1,2.9-28.6,6.1-46.2,6.1
	c-17.5,0-35.1-3.3-51.7-9.3c-16.6-6-32-14.8-45.7-26c-13.6-11.2-25.1-24.7-33.8-38.1c-8.7-13.4-14.6-26.6-19.7-40.1
	c-5.2-13.4-9.7-27.1-13.5-40.9c-3.8-13.8-6.9-27.9-9.4-51.4c-2.5-23.4-4.4-56.3-1.6-88.8c2.7-32.5,10.1-64.7,21.4-95.4
	c11.4-30.7,26.7-60,41.2-80.8c14.4-20.8,27.9-33.1,43.1-42.6c30.2-18.9,68-26.2,103.2-18.7c17.4,3.7,34.1,10.8,51.6,21.2
	c17.5,10.3,35.8,23.8,53.8,37.7c17.9,13.9,35.5,28.3,52.4,43.3c3.7,3.8,7.9,6.9,12.7,9.2c9.5,4.6,20.3,5.9,30.6,3.5
	c10.3-2.4,19.5-8.2,26-16.6c6.5-8.4,9.9-18.7,9.7-29.3c-1-17.9-4.5-35.7-10.5-52.6c-3-8.5-6.2-16.9-10.7-24.7l-55.6-96.3
	c-1.7-3-3.9-5.6-6.6-7.7c-8.2-6.4-18.7-7.8-28.9-2.9c-3.1,1.5-5.9,3.6-8.3,7.2c-2.4,3.5-4.5,8.5-5.8,11.7c-1.4,3.2-2,4.6-2.9,5.8
	C2434.6,429,2433.5,430.1,2432.2,430.9L2432.2,430.9z"/>
</svg>
